<?xml version="1.0" encoding="utf-8"?>
<!-- Generator: Adobe Illustrator 16.0.0, SVG Export Plug-In . SVG Version: 6.00 Build 0)  -->
<!DOCTYPE svg PUBLIC "-//W3C//DTD SVG 1.1//EN" "http://www.w3.org/Graphics/SVG/1.1/DTD/svg11.dtd">
<svg version="1.1" id="Layer_1" xmlns="http://www.w3.org/2000/svg" xmlns:xlink="http://www.w3.org/1999/xlink" x="0px" y="0px"
	 width="50px" height="50px" viewBox="0 0 50 50" enable-background="new 0 0 50 50" xml:space="preserve">
<path fill="#264DE4" d="M24.975,49.997L6.971,45L2.959,0.002h44.083l-4.017,44.991L24.975,49.997L24.975,49.997z"/>
<polygon fill="#FFFFFF" points="30.542,9.201 25.001,9.201 25.001,9.2 11.162,9.2 11.663,14.719 21.75,14.719 21.75,14.72 
	24.982,14.72 30.542,14.72 32.758,14.72 32.254,20.371 31.777,20.371 25.001,20.371 24.982,20.371 16.375,20.371 12.156,20.371 
	12.65,25.891 16.375,25.891 24.982,25.891 25.001,25.891 31.777,25.891 31.137,33.047 28.388,33.789 28.388,33.789 25.001,34.704 
	25.001,34.703 24.981,34.709 22.536,34.051 18.831,33.05 18.438,28.65 12.897,28.65 13.67,37.314 24.975,40.455 25,40.445 
	25,40.444 36.295,37.313 36.377,36.379 37.674,21.852 37.811,20.371 38.807,9.201 "/>
</svg>
